<svg width="500" height="500" viewBox="0 0 500 500" fill="none" xmlns="http://www.w3.org/2000/svg">
<rect x="61.5" y="61.5" width="377" height="377" rx="53.5" fill="#7C3AED" stroke="#7C3AED" stroke-width="3"/>
<path d="M320.337 309L365 347L320.337 389V372H145.807V333.362L245.433 239.528C256.011 229.47 263.144 220.884 266.834 213.77C270.524 206.41 272.369 199.173 272.369 192.059C272.369 181.756 268.802 173.905 261.668 168.508C254.781 162.866 244.572 160.045 231.043 160.045C219.727 160.045 209.519 162.253 200.417 166.669C191.316 170.839 183.69 177.217 177.54 185.803L168.503 155.67L134 157.837C144.086 142.873 157.984 131.22 175.695 122.879C193.406 114.293 213.701 110 236.578 110C255.765 110 272.492 113.189 286.759 119.567C301.273 125.7 312.465 134.532 320.337 146.062C328.455 157.346 332.513 170.716 332.513 186.171C332.513 200.154 329.562 213.279 323.658 225.545C317.754 237.811 306.316 251.794 289.342 267.494L229.936 323.427H320.337V309Z" fill="#F7F7F9"/>
</svg>
