<svg width="3400" height="512" viewBox="0 0 3400 512" fill="none" xmlns="http://www.w3.org/2000/svg">
<rect x="68.5" y="67.5" width="377" height="377" rx="53.5" fill="#FEA549" stroke="#FEA549" stroke-width="3"/>
<path d="M327.337 315L372 353L327.337 395V378H152.807V339.362L252.433 245.528C263.011 235.47 270.144 226.884 273.834 219.77C277.524 212.41 279.369 205.173 279.369 198.059C279.369 187.756 275.802 179.905 268.668 174.508C261.781 168.866 251.572 166.045 238.043 166.045C226.727 166.045 216.519 168.253 207.417 172.669C198.316 176.839 190.69 183.217 184.54 191.803L175.503 161.67L141 163.837C151.086 148.873 164.984 137.22 182.695 128.879C200.406 120.293 220.701 116 243.578 116C262.765 116 279.492 119.189 293.759 125.567C308.273 131.7 319.465 140.532 327.337 152.062C335.455 163.346 339.513 176.716 339.513 192.171C339.513 206.154 336.562 219.279 330.658 231.545C324.754 243.811 313.316 257.794 296.342 273.494L236.936 329.427H327.337V315Z" fill="#F7F7F9"/>
<path d="M564.88 133H623.2V385H564.88V133ZM735.205 180.52H654.565V133H874.165V180.52H793.525V385H735.205V180.52ZM1238.62 133V385H1180.3V281.68H1065.82V385H1007.5V133H1065.82V232.36H1180.3V133H1238.62ZM1294.28 191.32H1350.44V385H1294.28V191.32ZM1322.36 164.32C1312.04 164.32 1303.64 161.32 1297.16 155.32C1290.68 149.32 1287.44 141.88 1287.44 133C1287.44 124.12 1290.68 116.68 1297.16 110.68C1303.64 104.68 1312.04 101.68 1322.36 101.68C1332.68 101.68 1341.08 104.56 1347.56 110.32C1354.04 116.08 1357.28 123.28 1357.28 131.92C1357.28 141.28 1354.04 149.08 1347.56 155.32C1341.08 161.32 1332.68 164.32 1322.36 164.32ZM1456.2 216.88C1462.92 207.52 1471.92 200.44 1483.2 195.64C1494.72 190.84 1507.92 188.44 1522.8 188.44V240.28C1516.56 239.8 1512.36 239.56 1510.2 239.56C1494.12 239.56 1481.52 244.12 1472.4 253.24C1463.28 262.12 1458.72 275.56 1458.72 293.56V385H1402.56V191.32H1456.2V216.88ZM1744.16 288.88C1744.16 289.6 1743.8 294.64 1743.08 304H1596.56C1599.2 316 1605.44 325.48 1615.28 332.44C1625.12 339.4 1637.36 342.88 1652 342.88C1662.08 342.88 1670.96 341.44 1678.64 338.56C1686.56 335.44 1693.88 330.64 1700.6 324.16L1730.48 356.56C1712.24 377.44 1685.6 387.88 1650.56 387.88C1628.72 387.88 1609.4 383.68 1592.6 375.28C1575.8 366.64 1562.84 354.76 1553.72 339.64C1544.6 324.52 1540.04 307.36 1540.04 288.16C1540.04 269.2 1544.48 252.16 1553.36 237.04C1562.48 221.68 1574.84 209.8 1590.44 201.4C1606.28 192.76 1623.92 188.44 1643.36 188.44C1662.32 188.44 1679.48 192.52 1694.84 200.68C1710.2 208.84 1722.2 220.6 1730.84 235.96C1739.72 251.08 1744.16 268.72 1744.16 288.88ZM1643.72 230.92C1631 230.92 1620.32 234.52 1611.68 241.72C1603.04 248.92 1597.76 258.76 1595.84 271.24H1691.24C1689.32 259 1684.04 249.28 1675.4 242.08C1666.76 234.64 1656.2 230.92 1643.72 230.92ZM1846.71 387.88C1830.63 387.88 1814.91 385.96 1799.55 382.12C1784.19 378.04 1771.95 373 1762.83 367L1781.55 326.68C1790.19 332.2 1800.63 336.76 1812.87 340.36C1825.11 343.72 1837.11 345.4 1848.87 345.4C1872.63 345.4 1884.51 339.52 1884.51 327.76C1884.51 322.24 1881.27 318.28 1874.79 315.88C1868.31 313.48 1858.35 311.44 1844.91 309.76C1829.07 307.36 1815.99 304.6 1805.67 301.48C1795.35 298.36 1786.35 292.84 1778.67 284.92C1771.23 277 1767.5 265.72 1767.5 251.08C1767.5 238.84 1770.99 228.04 1777.95 218.68C1785.15 209.08 1795.47 201.64 1808.91 196.36C1822.59 191.08 1838.67 188.44 1857.15 188.44C1870.83 188.44 1884.39 190 1897.83 193.12C1911.51 196 1922.79 200.08 1931.67 205.36L1912.95 245.32C1895.91 235.72 1877.31 230.92 1857.15 230.92C1845.15 230.92 1836.15 232.6 1830.15 235.96C1824.15 239.32 1821.15 243.64 1821.15 248.92C1821.15 254.92 1824.39 259.12 1830.87 261.52C1837.35 263.92 1847.67 266.2 1861.83 268.36C1877.67 271 1890.63 273.88 1900.71 277C1910.79 279.88 1919.55 285.28 1926.99 293.2C1934.43 301.12 1938.15 312.16 1938.15 326.32C1938.15 338.32 1934.55 349 1927.35 358.36C1920.15 367.72 1909.59 375.04 1895.67 380.32C1881.99 385.36 1865.67 387.88 1846.71 387.88ZM2273.83 338.2V385H2078.71V133H2269.15V179.8H2136.67V234.52H2253.67V279.88H2136.67V338.2H2273.83ZM2509.99 191.32V385H2456.71V361.96C2449.27 370.36 2440.39 376.84 2430.07 381.4C2419.75 385.72 2408.59 387.88 2396.59 387.88C2371.15 387.88 2350.99 380.56 2336.11 365.92C2321.23 351.28 2313.79 329.56 2313.79 300.76V191.32H2369.95V292.48C2369.95 323.68 2383.03 339.28 2409.19 339.28C2422.63 339.28 2433.43 334.96 2441.59 326.32C2449.75 317.44 2453.83 304.36 2453.83 287.08V191.32H2509.99ZM2615.65 216.88C2622.37 207.52 2631.37 200.44 2642.65 195.64C2654.17 190.84 2667.37 188.44 2682.25 188.44V240.28C2676.01 239.8 2671.81 239.56 2669.65 239.56C2653.57 239.56 2640.97 244.12 2631.85 253.24C2622.73 262.12 2618.17 275.56 2618.17 293.56V385H2562.01V191.32H2615.65V216.88ZM2806.05 387.88C2785.65 387.88 2767.29 383.68 2750.97 375.28C2734.89 366.64 2722.29 354.76 2713.17 339.64C2704.05 324.52 2699.49 307.36 2699.49 288.16C2699.49 268.96 2704.05 251.8 2713.17 236.68C2722.29 221.56 2734.89 209.8 2750.97 201.4C2767.29 192.76 2785.65 188.44 2806.05 188.44C2826.45 188.44 2844.69 192.76 2860.77 201.4C2876.85 209.8 2889.45 221.56 2898.57 236.68C2907.69 251.8 2912.25 268.96 2912.25 288.16C2912.25 307.36 2907.69 324.52 2898.57 339.64C2889.45 354.76 2876.85 366.64 2860.77 375.28C2844.69 383.68 2826.45 387.88 2806.05 387.88ZM2806.05 341.8C2820.45 341.8 2832.21 337 2841.33 327.4C2850.69 317.56 2855.37 304.48 2855.37 288.16C2855.37 271.84 2850.69 258.88 2841.33 249.28C2832.21 239.44 2820.45 234.52 2806.05 234.52C2791.65 234.52 2779.77 239.44 2770.41 249.28C2761.05 258.88 2756.37 271.84 2756.37 288.16C2756.37 304.48 2761.05 317.56 2770.41 327.4C2779.77 337 2791.65 341.8 2806.05 341.8ZM3064.27 188.44C3082.27 188.44 3098.59 192.64 3113.23 201.04C3128.11 209.2 3139.75 220.84 3148.15 235.96C3156.55 250.84 3160.75 268.24 3160.75 288.16C3160.75 308.08 3156.55 325.6 3148.15 340.72C3139.75 355.6 3128.11 367.24 3113.23 375.64C3098.59 383.8 3082.27 387.88 3064.27 387.88C3039.55 387.88 3020.11 380.08 3005.95 364.48V454.84H2949.79V191.32H3003.43V213.64C3017.35 196.84 3037.63 188.44 3064.27 188.44ZM3054.55 341.8C3068.95 341.8 3080.71 337 3089.83 327.4C3099.19 317.56 3103.87 304.48 3103.87 288.16C3103.87 271.84 3099.19 258.88 3089.83 249.28C3080.71 239.44 3068.95 234.52 3054.55 234.52C3040.15 234.52 3028.27 239.44 3018.91 249.28C3009.79 258.88 3005.23 271.84 3005.23 288.16C3005.23 304.48 3009.79 317.56 3018.91 327.4C3028.27 337 3040.15 341.8 3054.55 341.8ZM3388.06 288.88C3388.06 289.6 3387.7 294.64 3386.98 304H3240.46C3243.1 316 3249.34 325.48 3259.18 332.44C3269.02 339.4 3281.26 342.88 3295.9 342.88C3305.98 342.88 3314.86 341.44 3322.54 338.56C3330.46 335.44 3337.78 330.64 3344.5 324.16L3374.38 356.56C3356.14 377.44 3329.5 387.88 3294.46 387.88C3272.62 387.88 3253.3 383.68 3236.5 375.28C3219.7 366.64 3206.74 354.76 3197.62 339.64C3188.5 324.52 3183.94 307.36 3183.94 288.16C3183.94 269.2 3188.38 252.16 3197.26 237.04C3206.38 221.68 3218.74 209.8 3234.34 201.4C3250.18 192.76 3267.82 188.44 3287.26 188.44C3306.22 188.44 3323.38 192.52 3338.74 200.68C3354.1 208.84 3366.1 220.6 3374.74 235.96C3383.62 251.08 3388.06 268.72 3388.06 288.88ZM3287.62 230.92C3274.9 230.92 3264.22 234.52 3255.58 241.72C3246.94 248.92 3241.66 258.76 3239.74 271.24H3335.14C3333.22 259 3327.94 249.28 3319.3 242.08C3310.66 234.64 3300.1 230.92 3287.62 230.92Z" fill="#F7F7F9"/>
</svg>
