<svg width="380" height="380" viewBox="0 0 380 380" fill="none" xmlns="http://www.w3.org/2000/svg">
<rect x="1.5" y="1.5" width="377" height="377" rx="53.5" fill="#8b5cf6" stroke="#8b5cf6" stroke-width="3"/>
<path d="M260.337 249L305 287L260.337 329V312H85.8075V273.362L185.433 179.528C196.011 169.47 203.144 160.884 206.834 153.77C210.524 146.41 212.369 139.173 212.369 132.059C212.369 121.756 208.802 113.905 201.668 108.508C194.781 102.866 184.572 100.045 171.043 100.045C159.727 100.045 149.519 102.253 140.417 106.669C131.316 110.839 123.69 117.217 117.54 125.803L108.503 95.6701L74 97.8371C84.0856 82.8727 97.984 71.22 115.695 62.8792C133.406 54.2931 153.701 50 176.578 50C195.765 50 212.492 53.1891 226.759 59.5674C241.273 65.7004 252.465 74.5318 260.337 86.0618C268.455 97.3464 272.513 110.716 272.513 126.171C272.513 140.154 269.562 153.279 263.658 165.545C257.754 177.811 246.316 191.794 229.342 207.494L169.936 263.427H260.337V249Z" fill="#8b5cf6"/>
</svg>
