<svg width="300" height="300" viewBox="0 0 300 300" fill="none" xmlns="http://www.w3.org/2000/svg">
<rect x="1.5" y="1.5" width="297" height="297" rx="53.5" fill="#2A9D8F" stroke="#2A9D8F" stroke-width="3"/>
<path d="M205.529 196.579L240.789 226.579L205.529 259.737V246.316H67.7427V215.812L146.395 141.733C154.745 133.792 160.377 127.014 163.29 121.397C166.203 115.587 167.66 109.874 167.66 104.257C167.66 96.1228 164.844 89.9253 159.212 85.6645C153.774 81.21 145.715 78.9828 135.034 78.9828C126.1 78.9828 118.041 80.7258 110.856 84.2119C103.67 87.5044 97.6498 92.5399 92.7948 99.3184L85.6605 75.529L58.421 77.2397C66.3833 65.4257 77.3557 56.2263 91.3383 49.6414C105.321 42.8629 121.342 39.4736 139.403 39.4736C154.551 39.4736 167.757 41.9914 179.021 47.0268C190.478 51.8687 199.315 58.8409 205.529 67.9435C211.938 76.8524 215.142 87.4075 215.142 99.6089C215.142 110.648 212.812 121.01 208.151 130.693C203.49 140.377 194.46 151.416 181.06 163.811L134.16 207.969H205.529V196.579Z" fill="#F7F7F9"/>
</svg>
